<?xml version="1.0" encoding="UTF-8"?>
<svg xmlns="http://www.w3.org/2000/svg" width="1024" height="1024" viewBox="0 0 1024 1024">
  <title>My Little Baby Notebook - App Icon (Gradient)</title>
  <defs>
    <linearGradient id="iconGrad" x1="0" y1="0" x2="1" y2="1">
      <stop offset="0%" stop-color="#B8DDC9"/>
      <stop offset="100%" stop-color="#5FA584"/>
    </linearGradient>
  </defs>

  <rect x="0" y="0" width="1024" height="1024" rx="229" fill="url(#iconGrad)"/>

  <g transform="translate(512, 512)">
    <rect x="-246" y="-266" width="492" height="532" rx="15" fill="none" stroke="#FFFFFF" stroke-width="22"/>
    <line x1="-246" y1="-245" x2="-246" y2="245" stroke="#FFFFFF" stroke-width="38" stroke-linecap="round"/>
    <circle cx="-246" cy="-210" r="14" fill="#8EC1A7"/>
    <circle cx="-246" cy="-128" r="14" fill="#8EC1A7"/>
    <circle cx="-246" cy="-47" r="14" fill="#8EC1A7"/>
    <circle cx="-246" cy="35" r="14" fill="#8EC1A7"/>
    <circle cx="-246" cy="117" r="14" fill="#8EC1A7"/>
    <circle cx="-246" cy="198" r="14" fill="#8EC1A7"/>

    <g transform="translate(60, -20)">
      <path d="M 0 110 C -100 50, -170 -25, -170 -85 C -170 -130, -135 -155, -90 -155 C -50 -155, -20 -130, 0 -100 C 20 -130, 50 -155, 90 -155 C 135 -155, 170 -130, 170 -85 C 170 -25, 100 50, 0 110 Z" fill="#FFFFFF"/>
    </g>
  </g>
</svg>
